{
.appVersion = "895";
copyright = "Copyright 2016 Google Inc. All Rights Reserved.";
customParameters = (
{
name = description;
value = "Designed by Monotype design team.";
},
{
name = license;
value = "This Font Software is licensed under the SIL Open Font License, Version 1.1. This Font Software is distributed on an \"AS IS\" BASIS, WITHOUT WARRANTIES OR CONDITIONS OF ANY KIND, either express or implied. See the SIL Open Font License for the specific language, permissions and limitations governing your use of this Font Software.";
},
{
name = licenseURL;
value = "http://scripts.sil.org/OFL";
},
{
name = vendorID;
value = GOOG;
},
{
name = trademark;
value = "Noto is a trademark of Google Inc.";
},
{
name = fsType;
value = (
);
},
{
name = panose;
value = (
2,
11,
5,
2,
4,
5,
4,
2,
2,
4
);
},
{
name = unicodeRanges;
value = (
57,
103
);
},
{
name = codePageRanges;
value = (
1252
);
}
);
date = "2016-11-10 14:42:29 +0000";
designer = "Monotype Design Team";
designerURL = "http://www.monotype.com/studio";
familyName = "Noto Sans Ugaritic";
fontMaster = (
{
ascender = 1522;
capHeight = 1432;
customParameters = (
{
name = typoAscender;
value = 1522;
},
{
name = typoDescender;
value = -780;
},
{
name = typoLineGap;
value = 0;
},
{
name = winAscent;
value = 1522;
},
{
name = winDescent;
value = 780;
},
{
name = hheaAscender;
value = 1522;
},
{
name = hheaDescender;
value = -780;
},
{
name = underlinePosition;
value = -205;
},
{
name = underlineThickness;
value = 102;
}
);
descender = -780;
id = "E8EA7376-6AA3-4456-998F-1F16054EEFB7";
weightValue = 400;
widthValue = 5;
xHeight = 1061;
}
);
glyphs = (
{
glyphname = .notdef;
lastChange = "2016-11-10 14:42:12 +0000";
layers = (
{
layerId = "E8EA7376-6AA3-4456-998F-1F16054EEFB7";
paths = (
{
closed = 1;
nodes = (
"1034 0 LINE",
"1034 1462 LINE",
"193 1462 LINE",
"193 0 LINE"
);
},
{
closed = 1;
nodes = (
"297 1358 LINE",
"930 1358 LINE",
"930 104 LINE",
"297 104 LINE"
);
}
);
width = 1229;
}
);
note = .notdef;
},
{
glyphname = g4;
lastChange = "2016-11-10 14:42:12 +0000";
layers = (
{
layerId = "E8EA7376-6AA3-4456-998F-1F16054EEFB7";
paths = (
{
closed = 1;
nodes = (
"336 300 OFFCURVE",
"501 372 OFFCURVE",
"754 433 CURVE",
"754 373 OFFCURVE",
"749 307 OFFCURVE",
"739 236 CURVE",
"932 321 OFFCURVE",
"1237 390 OFFCURVE",
"1804 459 CURVE",
"1804 506 LINE",
"1559 522 OFFCURVE",
"1338 546 OFFCURVE",
"1141 578 CURVE",
"1174 970 OFFCURVE",
"1232 1322 OFFCURVE",
"1300 1507 CURVE",
"1145 1470 OFFCURVE",
"1016 1473 OFFCURVE",
"860 1493 CURVE",
"938 1317 OFFCURVE",
"1005 1017 OFFCURVE",
"1062 592 CURVE",
"914 619 OFFCURVE",
"802 647 OFFCURVE",
"725 676 CURVE",
"741 613 OFFCURVE",
"750 548 OFFCURVE",
"753 483 CURVE",
"699 490 OFFCURVE",
"649 499 OFFCURVE",
"604 510 CURVE",
"640 994 OFFCURVE",
"704 1336 OFFCURVE",
"768 1507 CURVE",
"611 1470 OFFCURVE",
"484 1473 OFFCURVE",
"328 1493 CURVE",
"409 1314 OFFCURVE",
"480 992 OFFCURVE",
"539 526 CURVE",
"402 563 OFFCURVE",
"290 613 OFFCURVE",
"205 676 CURVE",
"234 519 OFFCURVE",
"231 386 OFFCURVE",
"211 199 CURVE"
);
}
);
width = 2009;
}
);
note = g4;
},
{
glyphname = g5;
lastChange = "2016-11-10 14:42:12 +0000";
layers = (
{
layerId = "E8EA7376-6AA3-4456-998F-1F16054EEFB7";
paths = (
{
closed = 1;
nodes = (
"477 -229 LINE",
"486 76 OFFCURVE",
"497 333 OFFCURVE",
"510 543 CURVE SMOOTH",
"536 962 OFFCURVE",
"572 1230 OFFCURVE",
"647 1507 CURVE",
"491 1472 OFFCURVE",
"341 1474 OFFCURVE",
"205 1507 CURVE",
"280 1239 OFFCURVE",
"321 1010 OFFCURVE",
"356 660 CURVE SMOOTH",
"373 485 OFFCURVE",
"396 188 OFFCURVE",
"424 -229 CURVE"
);
}
);
width = 852;
}
);
note = g5;
},
{
glyphname = g6;
lastChange = "2016-11-10 14:42:12 +0000";
layers = (
{
layerId = "E8EA7376-6AA3-4456-998F-1F16054EEFB7";
paths = (
{
closed = 1;
nodes = (
"453 -229 LINE",
"484 -46 OFFCURVE",
"533 125 OFFCURVE",
"599 284 CURVE SMOOTH",
"647 401 LINE",
"588 390 OFFCURVE",
"527 383 OFFCURVE",
"463 382 CURVE",
"495 545 OFFCURVE",
"541 699 OFFCURVE",
"602 844 CURVE SMOOTH",
"647 954 LINE",
"588 943 OFFCURVE",
"527 936 OFFCURVE",
"463 935 CURVE",
"495 1098 OFFCURVE",
"541 1252 OFFCURVE",
"602 1397 CURVE SMOOTH",
"647 1507 LINE",
"582 1494 OFFCURVE",
"517 1487 OFFCURVE",
"454 1487 CURVE SMOOTH",
"380 1487 OFFCURVE",
"297 1494 OFFCURVE",
"205 1507 CURVE",
"308 1284 OFFCURVE",
"348 1143 OFFCURVE",
"388 936 CURVE",
"326 939 OFFCURVE",
"265 945 OFFCURVE",
"205 954 CURVE",
"308 731 OFFCURVE",
"348 590 OFFCURVE",
"388 383 CURVE",
"326 386 OFFCURVE",
"265 392 OFFCURVE",
"205 401 CURVE",
"308 184 OFFCURVE",
"360 0 OFFCURVE",
"399 -229 CURVE"
);
}
);
width = 852;
}
);
note = g6;
},
{
glyphname = g7;
lastChange = "2016-11-10 14:42:12 +0000";
layers = (
{
layerId = "E8EA7376-6AA3-4456-998F-1F16054EEFB7";
paths = (
{
closed = 1;
nodes = (
"382 320 OFFCURVE",
"548 373 OFFCURVE",
"776 417 CURVE",
"774 369 OFFCURVE",
"768 308 OFFCURVE",
"758 233 CURVE",
"935 320 OFFCURVE",
"1101 373 OFFCURVE",
"1329 417 CURVE",
"1327 369 OFFCURVE",
"1321 308 OFFCURVE",
"1311 233 CURVE",
"1599 340 OFFCURVE",
"1888 401 OFFCURVE",
"2178 416 CURVE SMOOTH",
"2390 428 LINE",
"2390 481 LINE",
"1925 520 OFFCURVE",
"1687 565 OFFCURVE",
"1311 676 CURVE",
"1322 615 OFFCURVE",
"1329 553 OFFCURVE",
"1330 492 CURVE",
"1164 524 OFFCURVE",
"1010 570 OFFCURVE",
"867 630 CURVE SMOOTH",
"758 676 LINE",
"769 615 OFFCURVE",
"776 553 OFFCURVE",
"777 492 CURVE",
"611 524 OFFCURVE",
"457 570 OFFCURVE",
"314 630 CURVE SMOOTH",
"205 676 LINE",
"218 610 OFFCURVE",
"225 546 OFFCURVE",
"225 483 CURVE SMOOTH",
"225 410 OFFCURVE",
"218 326 OFFCURVE",
"205 233 CURVE"
);
}
);
width = 2595;
}
);
note = g7;
},
{
glyphname = g8;
lastChange = "2016-11-10 14:42:12 +0000";
layers = (
{
layerId = "E8EA7376-6AA3-4456-998F-1F16054EEFB7";
paths = (
{
closed = 1;
nodes = (
"1362 -408 LINE",
"1272 -247 OFFCURVE",
"1190 -117 OFFCURVE",
"1116 -18 CURVE",
"1189 100 OFFCURVE",
"1262 241 OFFCURVE",
"1335 406 CURVE",
"1294 430 LINE",
"1239 371 OFFCURVE",
"1182 312 OFFCURVE",
"1121 254 CURVE",
"1139 605 LINE",
"1266 625 LINE",
"1333 560 OFFCURVE",
"1440 444 OFFCURVE",
"1588 277 CURVE SMOOTH",
"1795 44 OFFCURVE",
"1952 -130 OFFCURVE",
"2060 -246 CURVE",
"2103 -215 LINE",
"1980 -20 OFFCURVE",
"1846 220 OFFCURVE",
"1699 507 CURVE SMOOTH",
"1618 664 LINE",
"1751 913 OFFCURVE",
"1913 1189 OFFCURVE",
"2103 1491 CURVE",
"2060 1522 LINE",
"1967 1422 OFFCURVE",
"1881 1332 OFFCURVE",
"1804 1251 CURVE SMOOTH",
"1648 1089 OFFCURVE",
"1519 958 OFFCURVE",
"1414 854 CURVE SMOOTH",
"1361 801 OFFCURVE",
"1314 754 OFFCURVE",
"1271 711 CURVE",
"1148 725 LINE",
"1173 1050 OFFCURVE",
"1207 1254 OFFCURVE",
"1278 1505 CURVE",
"1201 1490 OFFCURVE",
"1125 1483 OFFCURVE",
"1052 1483 CURVE SMOOTH",
"979 1483 OFFCURVE",
"907 1490 OFFCURVE",
"836 1505 CURVE",
"931 1156 OFFCURVE",
"955 1017 OFFCURVE",
"984 746 CURVE",
"700 779 OFFCURVE",
"284 839 OFFCURVE",
"205 864 CURVE",
"216 786 OFFCURVE",
"222 709 OFFCURVE",
"222 633 CURVE SMOOTH",
"222 570 OFFCURVE",
"219 500 OFFCURVE",
"213 422 CURVE",
"305 450 OFFCURVE",
"685 527 OFFCURVE",
"1001 582 CURVE",
"1016 423 OFFCURVE",
"1027 287 OFFCURVE",
"1034 172 CURVE",
"943 90 OFFCURVE",
"865 24 OFFCURVE",
"799 -25 CURVE",
"956 -125 OFFCURVE",
"1170 -293 OFFCURVE",
"1323 -438 CURVE"
);
}
);
width = 2308;
}
);
note = g8;
},
{
glyphname = g9;
lastChange = "2016-11-10 14:42:12 +0000";
layers = (
{
layerId = "E8EA7376-6AA3-4456-998F-1F16054EEFB7";
paths = (
{
closed = 1;
nodes = (
"922 -229 LINE",
"949 734 OFFCURVE",
"991 1148 OFFCURVE",
"1092 1507 CURVE",
"1011 1489 OFFCURVE",
"937 1480 OFFCURVE",
"868 1480 CURVE SMOOTH",
"795 1480 OFFCURVE",
"722 1489 OFFCURVE",
"649 1507 CURVE",
"694 1344 OFFCURVE",
"727 1196 OFFCURVE",
"749 1062 CURVE SMOOTH",
"793 794 OFFCURVE",
"824 463 OFFCURVE",
"868 -229 CURVE"
);
},
{
closed = 1;
nodes = (
"573 -201 LINE",
"542 -152 OFFCURVE",
"516 -107 OFFCURVE",
"495 -65 CURVE SMOOTH",
"473 -24 OFFCURVE",
"451 17 OFFCURVE",
"428 57 CURVE",
"451 98 OFFCURVE",
"473 140 OFFCURVE",
"495 181 CURVE SMOOTH",
"516 222 OFFCURVE",
"542 267 OFFCURVE",
"573 315 CURVE",
"539 338 LINE",
"472 279 OFFCURVE",
"380 202 OFFCURVE",
"263 106 CURVE SMOOTH",
"205 57 LINE",
"237 34 OFFCURVE",
"265 13 OFFCURVE",
"288 -6 CURVE SMOOTH",
"311 -25 OFFCURVE",
"357 -66 OFFCURVE",
"425 -127 CURVE SMOOTH",
"539 -229 LINE"
);
},
{
closed = 1;
nodes = (
"573 383 LINE",
"542 431 OFFCURVE",
"516 476 OFFCURVE",
"495 518 CURVE SMOOTH",
"473 560 OFFCURVE",
"451 601 OFFCURVE",
"428 641 CURVE",
"451 682 OFFCURVE",
"473 724 OFFCURVE",
"495 765 CURVE SMOOTH",
"516 806 OFFCURVE",
"542 851 OFFCURVE",
"573 899 CURVE",
"539 922 LINE",
"472 863 OFFCURVE",
"380 786 OFFCURVE",
"263 690 CURVE SMOOTH",
"205 641 LINE",
"261 600 OFFCURVE",
"334 539 OFFCURVE",
"425 457 CURVE SMOOTH",
"539 354 LINE"
);
},
{
closed = 1;
nodes = (
"1495 -201 LINE",
"1464 -152 OFFCURVE",
"1438 -107 OFFCURVE",
"1417 -65 CURVE SMOOTH",
"1395 -24 OFFCURVE",
"1373 17 OFFCURVE",
"1350 57 CURVE",
"1373 98 OFFCURVE",
"1395 140 OFFCURVE",
"1417 181 CURVE SMOOTH",
"1438 222 OFFCURVE",
"1464 267 OFFCURVE",
"1495 315 CURVE",
"1460 338 LINE",
"1393 279 OFFCURVE",
"1301 202 OFFCURVE",
"1184 106 CURVE SMOOTH",
"1126 57 LINE",
"1180 19 OFFCURVE",
"1254 -42 OFFCURVE",
"1347 -127 CURVE SMOOTH",
"1460 -229 LINE"
);
},
{
closed = 1;
nodes = (
"573 969 LINE",
"542 1017 OFFCURVE",
"516 1062 OFFCURVE",
"495 1104 CURVE SMOOTH",
"473 1146 OFFCURVE",
"451 1187 OFFCURVE",
"428 1227 CURVE",
"451 1268 OFFCURVE",
"473 1310 OFFCURVE",
"495 1351 CURVE SMOOTH",
"516 1392 OFFCURVE",
"542 1437 OFFCURVE",
"573 1485 CURVE",
"539 1507 LINE",
"455 1434 OFFCURVE",
"386 1375 OFFCURVE",
"331 1331 CURVE SMOOTH",
"205 1227 LINE",
"261 1186 OFFCURVE",
"334 1125 OFFCURVE",
"425 1043 CURVE SMOOTH",
"539 940 LINE"
);
},
{
closed = 1;
nodes = (
"1495 383 LINE",
"1464 431 OFFCURVE",
"1438 476 OFFCURVE",
"1417 518 CURVE SMOOTH",
"1395 560 OFFCURVE",
"1373 601 OFFCURVE",
"1350 641 CURVE",
"1373 682 OFFCURVE",
"1395 724 OFFCURVE",
"1417 765 CURVE SMOOTH",
"1438 806 OFFCURVE",
"1464 851 OFFCURVE",
"1495 899 CURVE",
"1460 922 LINE",
"1393 863 OFFCURVE",
"1301 786 OFFCURVE",
"1184 690 CURVE SMOOTH",
"1126 641 LINE",
"1180 603 OFFCURVE",
"1254 542 OFFCURVE",
"1347 457 CURVE SMOOTH",
"1460 354 LINE"
);
},
{
closed = 1;
nodes = (
"1495 969 LINE",
"1464 1017 OFFCURVE",
"1438 1062 OFFCURVE",
"1417 1104 CURVE SMOOTH",
"1395 1146 OFFCURVE",
"1373 1187 OFFCURVE",
"1350 1227 CURVE",
"1373 1268 OFFCURVE",
"1395 1310 OFFCURVE",
"1417 1351 CURVE SMOOTH",
"1438 1392 OFFCURVE",
"1464 1437 OFFCURVE",
"1495 1485 CURVE",
"1460 1507 LINE",
"1376 1434 OFFCURVE",
"1307 1375 OFFCURVE",
"1252 1331 CURVE SMOOTH",
"1126 1227 LINE",
"1180 1189 OFFCURVE",
"1254 1128 OFFCURVE",
"1347 1043 CURVE SMOOTH",
"1460 940 LINE"
);
}
);
width = 1700;
}
);
note = g9;
},
{
glyphname = g10;
lastChange = "2016-11-10 14:42:12 +0000";
layers = (
{
layerId = "E8EA7376-6AA3-4456-998F-1F16054EEFB7";
paths = (
{
closed = 1;
nodes = (
"453 324 LINE",
"484 507 OFFCURVE",
"533 678 OFFCURVE",
"599 837 CURVE SMOOTH",
"647 954 LINE",
"582 941 OFFCURVE",
"517 934 OFFCURVE",
"454 934 CURVE SMOOTH",
"380 934 OFFCURVE",
"297 941 OFFCURVE",
"205 954 CURVE",
"308 737 OFFCURVE",
"360 553 OFFCURVE",
"399 324 CURVE"
);
}
);
width = 852;
}
);
note = g10;
},
{
glyphname = g11;
lastChange = "2016-11-10 14:42:12 +0000";
layers = (
{
layerId = "E8EA7376-6AA3-4456-998F-1F16054EEFB7";
paths = (
{
closed = 1;
nodes = (
"382 320 OFFCURVE",
"548 373 OFFCURVE",
"776 417 CURVE",
"774 369 OFFCURVE",
"768 308 OFFCURVE",
"758 233 CURVE",
"935 320 OFFCURVE",
"1101 373 OFFCURVE",
"1329 417 CURVE",
"1327 369 OFFCURVE",
"1321 308 OFFCURVE",
"1311 233 CURVE",
"1599 340 OFFCURVE",
"1888 401 OFFCURVE",
"2178 416 CURVE SMOOTH",
"2390 428 LINE",
"2390 481 LINE",
"2107 503 OFFCURVE",
"1869 536 OFFCURVE",
"1677 580 CURVE",
"1713 1003 OFFCURVE",
"1774 1350 OFFCURVE",
"1833 1507 CURVE",
"1676 1470 OFFCURVE",
"1549 1473 OFFCURVE",
"1393 1493 CURVE",
"1464 1335 OFFCURVE",
"1530 1037 OFFCURVE",
"1589 600 CURVE",
"1486 626 OFFCURVE",
"1394 651 OFFCURVE",
"1311 676 CURVE",
"1322 615 OFFCURVE",
"1329 553 OFFCURVE",
"1330 492 CURVE",
"1271 503 OFFCURVE",
"1208 518 OFFCURVE",
"1141 535 CURVE",
"1177 976 OFFCURVE",
"1239 1339 OFFCURVE",
"1300 1507 CURVE",
"1145 1470 OFFCURVE",
"1016 1473 OFFCURVE",
"860 1493 CURVE",
"933 1329 OFFCURVE",
"1000 1018 OFFCURVE",
"1061 559 CURVE",
"937 598 OFFCURVE",
"843 640 OFFCURVE",
"758 676 CURVE",
"769 615 OFFCURVE",
"776 553 OFFCURVE",
"777 492 CURVE",
"728 501 OFFCURVE",
"672 516 OFFCURVE",
"609 536 CURVE",
"646 992 OFFCURVE",
"711 1356 OFFCURVE",
"768 1507 CURVE",
"611 1470 OFFCURVE",
"484 1473 OFFCURVE",
"328 1493 CURVE",
"401 1332 OFFCURVE",
"467 1022 OFFCURVE",
"528 563 CURVE",
"475 583 OFFCURVE",
"390 621 OFFCURVE",
"275 678 CURVE",
"205 709 LINE",
"218 647 OFFCURVE",
"224 574 OFFCURVE",
"224 491 CURVE SMOOTH",
"224 416 OFFCURVE",
"218 330 OFFCURVE",
"205 233 CURVE"
);
}
);
width = 2595;
}
);
note = g11;
},
{
glyphname = g12;
lastChange = "2016-11-10 14:42:12 +0000";
layers = (
{
layerId = "E8EA7376-6AA3-4456-998F-1F16054EEFB7";
paths = (
{
closed = 1;
nodes = (
"1012 -229 LINE",
"1039 734 OFFCURVE",
"1081 1148 OFFCURVE",
"1182 1507 CURVE",
"1026 1472 OFFCURVE",
"875 1474 OFFCURVE",
"739 1507 CURVE",
"784 1344 OFFCURVE",
"817 1196 OFFCURVE",
"839 1062 CURVE SMOOTH",
"883 794 OFFCURVE",
"914 463 OFFCURVE",
"958 -229 CURVE"
);
},
{
closed = 1;
nodes = (
"477 -229 LINE",
"486 76 OFFCURVE",
"497 333 OFFCURVE",
"510 543 CURVE SMOOTH",
"536 962 OFFCURVE",
"572 1230 OFFCURVE",
"647 1507 CURVE",
"491 1472 OFFCURVE",
"341 1474 OFFCURVE",
"205 1507 CURVE",
"280 1239 OFFCURVE",
"321 1010 OFFCURVE",
"356 660 CURVE SMOOTH",
"373 485 OFFCURVE",
"396 188 OFFCURVE",
"424 -229 CURVE"
);
},
{
closed = 1;
nodes = (
"1546 -229 LINE",
"1571 690 OFFCURVE",
"1615 1148 OFFCURVE",
"1716 1507 CURVE",
"1560 1472 OFFCURVE",
"1410 1474 OFFCURVE",
"1274 1507 CURVE",
"1349 1239 OFFCURVE",
"1390 1010 OFFCURVE",
"1425 660 CURVE SMOOTH",
"1442 485 OFFCURVE",
"1465 188 OFFCURVE",
"1493 -229 CURVE"
);
}
);
width = 1921;
}
);
note = g12;
},
{
glyphname = g13;
lastChange = "2016-11-10 14:42:12 +0000";
layers = (
{
layerId = "E8EA7376-6AA3-4456-998F-1F16054EEFB7";
paths = (
{
closed = 1;
nodes = (
"568 1053 OFFCURVE",
"985 1095 OFFCURVE",
"1942 1122 CURVE",
"1942 1176 LINE",
"1587 1199 OFFCURVE",
"1315 1220 OFFCURVE",
"1124 1238 CURVE SMOOTH",
"742 1273 OFFCURVE",
"533 1304 OFFCURVE",
"205 1395 CURVE",
"223 1322 OFFCURVE",
"232 1249 OFFCURVE",
"232 1176 CURVE SMOOTH",
"232 1107 OFFCURVE",
"223 1032 OFFCURVE",
"205 952 CURVE"
);
},
{
closed = 1;
nodes = (
"345 -79 OFFCURVE",
"489 -50 OFFCURVE",
"638 -29 CURVE SMOOTH",
"935 11 OFFCURVE",
"1350 37 OFFCURVE",
"1942 53 CURVE",
"1942 106 LINE",
"1587 129 OFFCURVE",
"1317 150 OFFCURVE",
"1134 167 CURVE SMOOTH",
"766 201 OFFCURVE",
"541 233 OFFCURVE",
"205 326 CURVE",
"223 253 OFFCURVE",
"232 180 OFFCURVE",
"232 107 CURVE SMOOTH",
"232 38 OFFCURVE",
"223 -37 OFFCURVE",
"205 -117 CURVE"
);
},
{
closed = 1;
nodes = (
"345 456 OFFCURVE",
"489 485 OFFCURVE",
"638 506 CURVE SMOOTH",
"935 546 OFFCURVE",
"1350 572 OFFCURVE",
"1942 588 CURVE",
"1942 641 LINE",
"1641 660 OFFCURVE",
"1391 679 OFFCURVE",
"1191 697 CURVE SMOOTH",
"790 732 OFFCURVE",
"538 768 OFFCURVE",
"205 860 CURVE",
"223 788 OFFCURVE",
"232 715 OFFCURVE",
"232 642 CURVE SMOOTH",
"232 573 OFFCURVE",
"223 498 OFFCURVE",
"205 418 CURVE"
);
}
);
width = 2146;
}
);
note = g13;
},
{
glyphname = g14;
lastChange = "2016-11-10 14:42:12 +0000";
layers = (
{
layerId = "E8EA7376-6AA3-4456-998F-1F16054EEFB7";
paths = (
{
closed = 1;
nodes = (
"471 -229 LINE",
"525 346 OFFCURVE",
"590 723 OFFCURVE",
"666 903 CURVE",
"608 894 OFFCURVE",
"553 887 OFFCURVE",
"502 883 CURVE",
"549 1132 OFFCURVE",
"611 1375 OFFCURVE",
"666 1507 CURVE",
"600 1494 OFFCURVE",
"536 1487 OFFCURVE",
"473 1487 CURVE SMOOTH",
"401 1487 OFFCURVE",
"318 1494 OFFCURVE",
"225 1507 CURVE",
"274 1404 OFFCURVE",
"338 1154 OFFCURVE",
"386 881 CURVE",
"334 883 OFFCURVE",
"280 890 OFFCURVE",
"225 903 CURVE",
"296 724 OFFCURVE",
"377 282 OFFCURVE",
"424 -229 CURVE"
);
}
);
width = 891;
}
);
note = g14;
},
{
glyphname = g15;
lastChange = "2016-11-10 14:42:12 +0000";
layers = (
{
layerId = "E8EA7376-6AA3-4456-998F-1F16054EEFB7";
paths = (
{
closed = 1;
nodes = (
"2103 -215 LINE",
"1980 -20 OFFCURVE",
"1846 220 OFFCURVE",
"1699 507 CURVE SMOOTH",
"1618 664 LINE",
"1751 913 OFFCURVE",
"1913 1189 OFFCURVE",
"2103 1491 CURVE",
"2060 1522 LINE",
"1967 1422 OFFCURVE",
"1881 1332 OFFCURVE",
"1804 1251 CURVE SMOOTH",
"1648 1089 OFFCURVE",
"1519 958 OFFCURVE",
"1414 854 CURVE SMOOTH",
"1361 801 OFFCURVE",
"1314 754 OFFCURVE",
"1271 711 CURVE",
"1154 725 LINE",
"1181 1049 OFFCURVE",
"1215 1280 OFFCURVE",
"1278 1505 CURVE",
"1201 1490 OFFCURVE",
"1125 1483 OFFCURVE",
"1052 1483 CURVE SMOOTH",
"979 1483 OFFCURVE",
"907 1490 OFFCURVE",
"836 1505 CURVE",
"911 1225 OFFCURVE",
"942 1051 OFFCURVE",
"977 747 CURVE",
"528 804 OFFCURVE",
"271 843 OFFCURVE",
"205 864 CURVE",
"216 786 OFFCURVE",
"222 709 OFFCURVE",
"222 633 CURVE SMOOTH",
"222 570 OFFCURVE",
"219 500 OFFCURVE",
"213 422 CURVE",
"377 466 OFFCURVE",
"803 549 OFFCURVE",
"994 581 CURVE",
"1013 375 OFFCURVE",
"1033 105 OFFCURVE",
"1055 -229 CURVE",
"1108 -229 LINE",
"1117 82 OFFCURVE",
"1129 360 OFFCURVE",
"1145 606 CURVE",
"1266 625 LINE",
"1333 560 OFFCURVE",
"1440 444 OFFCURVE",
"1588 277 CURVE SMOOTH",
"1795 44 OFFCURVE",
"1952 -130 OFFCURVE",
"2060 -246 CURVE"
);
}
);
width = 2308;
}
);
note = g15;
},
{
glyphname = g16;
lastChange = "2016-11-10 14:42:12 +0000";
layers = (
{
layerId = "E8EA7376-6AA3-4456-998F-1F16054EEFB7";
paths = (
{
closed = 1;
nodes = (
"987 -229 LINE",
"1019 -42 OFFCURVE",
"1068 129 OFFCURVE",
"1133 284 CURVE SMOOTH",
"1182 401 LINE",
"1121 390 OFFCURVE",
"1059 383 OFFCURVE",
"997 382 CURVE",
"1029 545 OFFCURVE",
"1075 699 OFFCURVE",
"1136 844 CURVE SMOOTH",
"1182 954 LINE",
"1121 943 OFFCURVE",
"1059 936 OFFCURVE",
"997 935 CURVE",
"1029 1098 OFFCURVE",
"1075 1252 OFFCURVE",
"1136 1397 CURVE SMOOTH",
"1182 1507 LINE",
"1116 1494 OFFCURVE",
"1052 1487 OFFCURVE",
"989 1487 CURVE SMOOTH",
"916 1487 OFFCURVE",
"832 1494 OFFCURVE",
"739 1507 CURVE",
"828 1322 OFFCURVE",
"879 1165 OFFCURVE",
"923 936 CURVE",
"860 939 OFFCURVE",
"799 945 OFFCURVE",
"739 954 CURVE",
"828 769 OFFCURVE",
"879 612 OFFCURVE",
"923 383 CURVE",
"860 386 OFFCURVE",
"799 392 OFFCURVE",
"739 401 CURVE",
"848 170 OFFCURVE",
"895 -6 OFFCURVE",
"934 -229 CURVE"
);
},
{
closed = 1;
nodes = (
"453 -229 LINE",
"484 -46 OFFCURVE",
"533 125 OFFCURVE",
"599 284 CURVE SMOOTH",
"647 401 LINE",
"588 390 OFFCURVE",
"527 383 OFFCURVE",
"463 382 CURVE",
"495 545 OFFCURVE",
"541 699 OFFCURVE",
"602 844 CURVE SMOOTH",
"647 954 LINE",
"588 943 OFFCURVE",
"527 936 OFFCURVE",
"463 935 CURVE",
"495 1098 OFFCURVE",
"541 1252 OFFCURVE",
"602 1397 CURVE SMOOTH",
"647 1507 LINE",
"582 1494 OFFCURVE",
"517 1487 OFFCURVE",
"454 1487 CURVE SMOOTH",
"380 1487 OFFCURVE",
"297 1494 OFFCURVE",
"205 1507 CURVE",
"308 1284 OFFCURVE",
"348 1143 OFFCURVE",
"388 936 CURVE",
"326 939 OFFCURVE",
"265 945 OFFCURVE",
"205 954 CURVE",
"308 731 OFFCURVE",
"348 590 OFFCURVE",
"388 383 CURVE",
"326 386 OFFCURVE",
"265 392 OFFCURVE",
"205 401 CURVE",
"308 184 OFFCURVE",
"360 0 OFFCURVE",
"399 -229 CURVE"
);
}
);
width = 1386;
}
);
note = g16;
},
{
glyphname = g17;
lastChange = "2016-11-10 14:42:12 +0000";
layers = (
{
layerId = "E8EA7376-6AA3-4456-998F-1F16054EEFB7";
paths = (
{
closed = 1;
nodes = (
"1083 -215 LINE",
"960 -20 OFFCURVE",
"826 220 OFFCURVE",
"679 507 CURVE SMOOTH",
"598 664 LINE",
"731 913 OFFCURVE",
"893 1189 OFFCURVE",
"1083 1491 CURVE",
"1040 1522 LINE",
"829 1295 OFFCURVE",
"599 1057 OFFCURVE",
"350 810 CURVE SMOOTH",
"205 664 LINE",
"277 597 OFFCURVE",
"388 480 OFFCURVE",
"538 312 CURVE SMOOTH",
"777 43 OFFCURVE",
"945 -143 OFFCURVE",
"1040 -246 CURVE"
);
},
{
closed = 1;
nodes = (
"1403 -229 LINE",
"1428 690 OFFCURVE",
"1472 1148 OFFCURVE",
"1573 1507 CURVE",
"1417 1472 OFFCURVE",
"1266 1474 OFFCURVE",
"1130 1507 CURVE",
"1213 1211 OFFCURVE",
"1250 991 OFFCURVE",
"1283 645 CURVE SMOOTH",
"1300 472 OFFCURVE",
"1322 180 OFFCURVE",
"1350 -229 CURVE"
);
},
{
closed = 1;
nodes = (
"1757 714 OFFCURVE",
"1931 1042 OFFCURVE",
"2093 1266 CURVE",
"1940 1269 OFFCURVE",
"1831 1296 OFFCURVE",
"1671 1389 CURVE",
"1673 1323 LINE SMOOTH",
"1673 1076 OFFCURVE",
"1624 734 OFFCURVE",
"1526 297 CURVE",
"1571 283 LINE"
);
}
);
width = 2298;
}
);
note = g17;
},
{
glyphname = g18;
lastChange = "2016-11-10 14:42:12 +0000";
layers = (
{
layerId = "E8EA7376-6AA3-4456-998F-1F16054EEFB7";
paths = (
{
closed = 1;
nodes = (
"345 456 OFFCURVE",
"489 485 OFFCURVE",
"638 506 CURVE SMOOTH",
"935 546 OFFCURVE",
"1350 572 OFFCURVE",
"1942 588 CURVE",
"1942 641 LINE",
"1641 660 OFFCURVE",
"1391 679 OFFCURVE",
"1191 697 CURVE SMOOTH",
"790 732 OFFCURVE",
"538 768 OFFCURVE",
"205 860 CURVE",
"223 788 OFFCURVE",
"232 715 OFFCURVE",
"232 642 CURVE SMOOTH",
"232 573 OFFCURVE",
"223 498 OFFCURVE",
"205 418 CURVE"
);
}
);
width = 2146;
}
);
note = g18;
},
{
glyphname = g19;
lastChange = "2016-11-10 14:42:12 +0000";
layers = (
{
layerId = "E8EA7376-6AA3-4456-998F-1F16054EEFB7";
paths = (
{
closed = 1;
nodes = (
"345 765 OFFCURVE",
"489 794 OFFCURVE",
"638 815 CURVE SMOOTH",
"935 855 OFFCURVE",
"1350 881 OFFCURVE",
"1942 897 CURVE",
"1942 950 LINE",
"1641 969 OFFCURVE",
"1391 988 OFFCURVE",
"1191 1006 CURVE SMOOTH",
"790 1041 OFFCURVE",
"538 1077 OFFCURVE",
"205 1169 CURVE",
"223 1097 OFFCURVE",
"232 1024 OFFCURVE",
"232 951 CURVE SMOOTH",
"232 882 OFFCURVE",
"223 807 OFFCURVE",
"205 727 CURVE"
);
},
{
closed = 1;
nodes = (
"345 245 OFFCURVE",
"489 274 OFFCURVE",
"638 295 CURVE SMOOTH",
"935 335 OFFCURVE",
"1350 361 OFFCURVE",
"1942 377 CURVE",
"1942 430 LINE",
"1641 449 OFFCURVE",
"1391 468 OFFCURVE",
"1191 486 CURVE SMOOTH",
"790 521 OFFCURVE",
"538 557 OFFCURVE",
"205 649 CURVE",
"223 577 OFFCURVE",
"232 504 OFFCURVE",
"232 431 CURVE SMOOTH",
"232 362 OFFCURVE",
"223 287 OFFCURVE",
"205 207 CURVE"
);
}
);
width = 2146;
}
);
note = g19;
},
{
glyphname = g20;
lastChange = "2016-11-10 14:42:12 +0000";
layers = (
{
layerId = "E8EA7376-6AA3-4456-998F-1F16054EEFB7";
paths = (
{
closed = 1;
nodes = (
"1337 -221 LINE",
"1364 174 OFFCURVE",
"1387 462 OFFCURVE",
"1405 642 CURVE SMOOTH",
"1440 1001 OFFCURVE",
"1475 1215 OFFCURVE",
"1559 1516 CURVE",
"1486 1498 OFFCURVE",
"1413 1489 OFFCURVE",
"1340 1489 CURVE SMOOTH",
"1271 1489 OFFCURVE",
"1196 1498 OFFCURVE",
"1116 1516 CURVE",
"1152 1384 OFFCURVE",
"1180 1251 OFFCURVE",
"1199 1116 CURVE SMOOTH",
"1238 847 OFFCURVE",
"1265 462 OFFCURVE",
"1284 -221 CURVE"
);
},
{
closed = 1;
nodes = (
"805 -221 LINE",
"827 122 OFFCURVE",
"847 389 OFFCURVE",
"865 582 CURVE SMOOTH",
"900 966 OFFCURVE",
"936 1200 OFFCURVE",
"1024 1516 CURVE",
"952 1498 OFFCURVE",
"879 1489 OFFCURVE",
"806 1489 CURVE SMOOTH",
"737 1489 OFFCURVE",
"662 1498 OFFCURVE",
"582 1516 CURVE",
"621 1373 OFFCURVE",
"650 1228 OFFCURVE",
"670 1080 CURVE SMOOTH",
"710 783 OFFCURVE",
"736 368 OFFCURVE",
"752 -221 CURVE"
);
}
);
width = 2146;
}
);
note = g20;
},
{
glyphname = g21;
lastChange = "2016-11-10 14:42:12 +0000";
layers = (
{
layerId = "E8EA7376-6AA3-4456-998F-1F16054EEFB7";
paths = (
{
closed = 1;
nodes = (
"2103 -215 LINE",
"1980 -20 OFFCURVE",
"1846 220 OFFCURVE",
"1699 507 CURVE SMOOTH",
"1618 664 LINE",
"1751 913 OFFCURVE",
"1913 1189 OFFCURVE",
"2103 1491 CURVE",
"2060 1522 LINE",
"1967 1422 OFFCURVE",
"1881 1332 OFFCURVE",
"1804 1251 CURVE SMOOTH",
"1648 1089 OFFCURVE",
"1519 958 OFFCURVE",
"1414 854 CURVE SMOOTH",
"1361 801 OFFCURVE",
"1314 754 OFFCURVE",
"1271 711 CURVE",
"843 759 OFFCURVE",
"292 836 OFFCURVE",
"205 864 CURVE",
"216 786 OFFCURVE",
"222 709 OFFCURVE",
"222 633 CURVE SMOOTH",
"222 570 OFFCURVE",
"219 500 OFFCURVE",
"213 422 CURVE",
"360 465 OFFCURVE",
"927 576 OFFCURVE",
"1266 625 CURVE",
"1333 560 OFFCURVE",
"1440 444 OFFCURVE",
"1588 277 CURVE SMOOTH",
"1795 44 OFFCURVE",
"1952 -130 OFFCURVE",
"2060 -246 CURVE"
);
}
);
width = 2308;
}
);
note = g21;
},
{
glyphname = g22;
lastChange = "2016-11-10 14:42:12 +0000";
layers = (
{
layerId = "E8EA7376-6AA3-4456-998F-1F16054EEFB7";
paths = (
{
closed = 1;
nodes = (
"568 1053 OFFCURVE",
"985 1095 OFFCURVE",
"1942 1122 CURVE",
"1942 1176 LINE",
"1587 1199 OFFCURVE",
"1315 1220 OFFCURVE",
"1124 1238 CURVE SMOOTH",
"742 1273 OFFCURVE",
"533 1304 OFFCURVE",
"205 1395 CURVE",
"223 1322 OFFCURVE",
"232 1249 OFFCURVE",
"232 1176 CURVE SMOOTH",
"232 1107 OFFCURVE",
"223 1032 OFFCURVE",
"205 952 CURVE"
);
},
{
closed = 1;
nodes = (
"596 -780 LINE",
"628 -593 OFFCURVE",
"677 -422 OFFCURVE",
"742 -267 CURVE SMOOTH",
"791 -150 LINE",
"725 -163 OFFCURVE",
"660 -170 OFFCURVE",
"597 -170 CURVE SMOOTH",
"523 -170 OFFCURVE",
"440 -163 OFFCURVE",
"348 -150 CURVE",
"457 -381 OFFCURVE",
"504 -557 OFFCURVE",
"543 -780 CURVE"
);
},
{
closed = 1;
nodes = (
"345 -79 OFFCURVE",
"489 -50 OFFCURVE",
"638 -29 CURVE SMOOTH",
"935 11 OFFCURVE",
"1350 37 OFFCURVE",
"1942 53 CURVE",
"1942 106 LINE",
"1587 129 OFFCURVE",
"1317 150 OFFCURVE",
"1134 167 CURVE SMOOTH",
"766 201 OFFCURVE",
"541 233 OFFCURVE",
"205 326 CURVE",
"223 253 OFFCURVE",
"232 180 OFFCURVE",
"232 107 CURVE SMOOTH",
"232 38 OFFCURVE",
"223 -37 OFFCURVE",
"205 -117 CURVE"
);
},
{
closed = 1;
nodes = (
"345 456 OFFCURVE",
"489 485 OFFCURVE",
"638 506 CURVE SMOOTH",
"935 546 OFFCURVE",
"1350 572 OFFCURVE",
"1942 588 CURVE",
"1942 641 LINE",
"1641 660 OFFCURVE",
"1391 679 OFFCURVE",
"1191 697 CURVE SMOOTH",
"790 732 OFFCURVE",
"538 768 OFFCURVE",
"205 860 CURVE",
"223 788 OFFCURVE",
"232 715 OFFCURVE",
"232 642 CURVE SMOOTH",
"232 573 OFFCURVE",
"223 498 OFFCURVE",
"205 418 CURVE"
);
}
);
width = 2146;
}
);
note = g22;
},
{
glyphname = g23;
lastChange = "2016-11-10 14:42:12 +0000";
layers = (
{
layerId = "E8EA7376-6AA3-4456-998F-1F16054EEFB7";
paths = (
{
closed = 1;
nodes = (
"1083 -215 LINE",
"960 -20 OFFCURVE",
"826 220 OFFCURVE",
"679 507 CURVE SMOOTH",
"598 664 LINE",
"731 913 OFFCURVE",
"893 1189 OFFCURVE",
"1083 1491 CURVE",
"1040 1522 LINE",
"829 1295 OFFCURVE",
"599 1057 OFFCURVE",
"350 810 CURVE SMOOTH",
"205 664 LINE",
"277 597 OFFCURVE",
"388 480 OFFCURVE",
"538 312 CURVE SMOOTH",
"777 43 OFFCURVE",
"945 -143 OFFCURVE",
"1040 -246 CURVE"
);
}
);
width = 1288;
}
);
note = g23;
},
{
glyphname = g24;
lastChange = "2016-11-10 14:42:12 +0000";
layers = (
{
layerId = "E8EA7376-6AA3-4456-998F-1F16054EEFB7";
paths = (
{
closed = 1;
nodes = (
"670 -229 LINE",
"722 214 OFFCURVE",
"783 538 OFFCURVE",
"853 743 CURVE",
"893 743 LINE",
"909 842 OFFCURVE",
"926 935 OFFCURVE",
"944 1021 CURVE SMOOTH",
"979 1193 OFFCURVE",
"1009 1295 OFFCURVE",
"1090 1507 CURVE",
"1005 1486 OFFCURVE",
"931 1476 OFFCURVE",
"870 1476 CURVE SMOOTH",
"807 1476 OFFCURVE",
"733 1486 OFFCURVE",
"649 1507 CURVE",
"681 1423 LINE SMOOTH",
"750 1242 OFFCURVE",
"796 1051 OFFCURVE",
"841 774 CURVE",
"768 757 OFFCURVE",
"703 749 OFFCURVE",
"647 749 CURVE SMOOTH",
"589 749 OFFCURVE",
"525 757 OFFCURVE",
"454 773 CURVE",
"505 1086 OFFCURVE",
"545 1245 OFFCURVE",
"614 1424 CURVE SMOOTH",
"645 1507 LINE",
"560 1486 OFFCURVE",
"486 1476 OFFCURVE",
"425 1476 CURVE SMOOTH",
"362 1476 OFFCURVE",
"289 1486 OFFCURVE",
"205 1507 CURVE",
"237 1421 LINE SMOOTH",
"305 1246 OFFCURVE",
"348 1072 OFFCURVE",
"401 743 CURVE",
"439 743 LINE",
"546 434 OFFCURVE",
"600 112 OFFCURVE",
"623 -229 CURVE"
);
}
);
width = 1294;
}
);
note = g24;
},
{
glyphname = g25;
lastChange = "2016-11-10 14:42:12 +0000";
layers = (
{
layerId = "E8EA7376-6AA3-4456-998F-1F16054EEFB7";
paths = (
{
closed = 1;
nodes = (
"2619 -215 LINE",
"2496 -20 OFFCURVE",
"2362 220 OFFCURVE",
"2215 507 CURVE SMOOTH",
"2134 664 LINE",
"2267 913 OFFCURVE",
"2429 1189 OFFCURVE",
"2619 1491 CURVE",
"2576 1522 LINE",
"2365 1295 OFFCURVE",
"2135 1057 OFFCURVE",
"1886 810 CURVE SMOOTH",
"1741 664 LINE",
"1813 597 OFFCURVE",
"1924 480 OFFCURVE",
"2074 312 CURVE SMOOTH",
"2313 43 OFFCURVE",
"2481 -143 OFFCURVE",
"2576 -246 CURVE"
);
},
{
closed = 1;
nodes = (
"345 245 OFFCURVE",
"489 274 OFFCURVE",
"638 295 CURVE SMOOTH",
"935 335 OFFCURVE",
"1350 361 OFFCURVE",
"1942 377 CURVE",
"1942 430 LINE",
"1641 449 OFFCURVE",
"1391 468 OFFCURVE",
"1191 486 CURVE SMOOTH",
"790 521 OFFCURVE",
"538 557 OFFCURVE",
"205 649 CURVE",
"223 577 OFFCURVE",
"232 504 OFFCURVE",
"232 431 CURVE SMOOTH",
"232 362 OFFCURVE",
"223 287 OFFCURVE",
"205 207 CURVE"
);
},
{
closed = 1;
nodes = (
"345 765 OFFCURVE",
"489 794 OFFCURVE",
"638 815 CURVE SMOOTH",
"935 855 OFFCURVE",
"1350 881 OFFCURVE",
"1942 897 CURVE",
"1942 950 LINE",
"1641 969 OFFCURVE",
"1391 988 OFFCURVE",
"1191 1006 CURVE SMOOTH",
"790 1041 OFFCURVE",
"538 1077 OFFCURVE",
"205 1169 CURVE",
"223 1097 OFFCURVE",
"232 1024 OFFCURVE",
"232 951 CURVE SMOOTH",
"232 882 OFFCURVE",
"223 807 OFFCURVE",
"205 727 CURVE"
);
}
);
width = 2824;
}
);
note = g25;
},
{
glyphname = g26;
lastChange = "2016-11-10 14:42:12 +0000";
layers = (
{
layerId = "E8EA7376-6AA3-4456-998F-1F16054EEFB7";
paths = (
{
closed = 1;
nodes = (
"805 -229 LINE",
"818 165 LINE",
"905 93 OFFCURVE",
"993 23 OFFCURVE",
"1081 -45 CURVE",
"1110 -4 LINE",
"1014 106 OFFCURVE",
"919 222 OFFCURVE",
"826 345 CURVE",
"838 599 OFFCURVE",
"856 821 OFFCURVE",
"879 1010 CURVE",
"1110 1280 LINE",
"1081 1321 LINE",
"904 1183 LINE",
"923 1297 OFFCURVE",
"946 1405 OFFCURVE",
"975 1507 CURVE",
"819 1472 OFFCURVE",
"668 1474 OFFCURVE",
"532 1507 CURVE",
"592 1288 OFFCURVE",
"620 1160 OFFCURVE",
"645 984 CURVE",
"205 657 LINE",
"266 616 OFFCURVE",
"338 561 OFFCURVE",
"423 491 CURVE SMOOTH",
"508 420 OFFCURVE",
"606 339 OFFCURVE",
"718 247 CURVE",
"752 -229 LINE"
);
},
{
closed = 1;
nodes = (
"598 657 LINE",
"673 756 LINE",
"684 659 OFFCURVE",
"691 581 OFFCURVE",
"696 520 CURVE"
);
}
);
width = 1315;
}
);
note = g26;
},
{
glyphname = g27;
lastChange = "2016-11-10 14:42:12 +0000";
layers = (
{
layerId = "E8EA7376-6AA3-4456-998F-1F16054EEFB7";
paths = (
{
closed = 1;
nodes = (
"1083 -215 LINE",
"1017 -108 LINE",
"1217 353 OFFCURVE",
"1365 683 OFFCURVE",
"1460 884 CURVE SMOOTH",
"1555 1084 OFFCURVE",
"1623 1211 OFFCURVE",
"1663 1266 CURVE",
"1503 1269 OFFCURVE",
"1392 1300 OFFCURVE",
"1241 1389 CURVE",
"1242 1367 LINE",
"1242 1212 OFFCURVE",
"1153 743 OFFCURVE",
"976 -39 CURVE",
"877 127 OFFCURVE",
"774 319 OFFCURVE",
"665 536 CURVE SMOOTH",
"598 664 LINE",
"731 913 OFFCURVE",
"893 1189 OFFCURVE",
"1083 1491 CURVE",
"1040 1522 LINE",
"829 1295 OFFCURVE",
"599 1057 OFFCURVE",
"350 810 CURVE SMOOTH",
"205 664 LINE",
"277 597 OFFCURVE",
"388 480 OFFCURVE",
"538 312 CURVE SMOOTH",
"777 43 OFFCURVE",
"945 -143 OFFCURVE",
"1040 -246 CURVE"
);
}
);
width = 1868;
}
);
note = g27;
},
{
glyphname = g28;
lastChange = "2016-11-10 14:42:12 +0000";
layers = (
{
layerId = "E8EA7376-6AA3-4456-998F-1F16054EEFB7";
paths = (
{
closed = 1;
nodes = (
"345 251 OFFCURVE",
"489 280 OFFCURVE",
"638 301 CURVE SMOOTH",
"935 341 OFFCURVE",
"1350 367 OFFCURVE",
"1942 383 CURVE",
"1942 436 LINE",
"1667 454 LINE",
"1698 898 OFFCURVE",
"1766 1331 OFFCURVE",
"1833 1507 CURVE",
"1676 1470 OFFCURVE",
"1549 1473 OFFCURVE",
"1393 1493 CURVE",
"1471 1318 OFFCURVE",
"1542 974 OFFCURVE",
"1607 459 CURVE",
"1138 496 LINE",
"1173 937 OFFCURVE",
"1235 1331 OFFCURVE",
"1300 1507 CURVE",
"1145 1470 OFFCURVE",
"1016 1473 OFFCURVE",
"860 1493 CURVE",
"938 1318 OFFCURVE",
"1008 988 OFFCURVE",
"1069 503 CURVE",
"880 522 OFFCURVE",
"727 541 OFFCURVE",
"611 562 CURVE",
"648 1002 OFFCURVE",
"708 1346 OFFCURVE",
"768 1507 CURVE",
"611 1470 OFFCURVE",
"484 1473 OFFCURVE",
"328 1493 CURVE",
"400 1332 OFFCURVE",
"466 1027 OFFCURVE",
"527 577 CURVE",
"429 597 OFFCURVE",
"322 623 OFFCURVE",
"205 655 CURVE",
"223 583 OFFCURVE",
"232 510 OFFCURVE",
"232 437 CURVE SMOOTH",
"232 368 OFFCURVE",
"223 293 OFFCURVE",
"205 213 CURVE"
);
}
);
width = 2146;
}
);
note = g28;
},
{
glyphname = g29;
lastChange = "2016-11-10 14:42:12 +0000";
layers = (
{
layerId = "E8EA7376-6AA3-4456-998F-1F16054EEFB7";
paths = (
{
closed = 1;
nodes = (
"1337 -221 LINE",
"1364 174 OFFCURVE",
"1387 462 OFFCURVE",
"1405 642 CURVE SMOOTH",
"1440 1001 OFFCURVE",
"1475 1215 OFFCURVE",
"1559 1516 CURVE",
"1486 1498 OFFCURVE",
"1413 1489 OFFCURVE",
"1340 1489 CURVE SMOOTH",
"1271 1489 OFFCURVE",
"1196 1498 OFFCURVE",
"1116 1516 CURVE",
"1141 1425 OFFCURVE",
"1162 1331 OFFCURVE",
"1179 1236 CURVE",
"775 1297 OFFCURVE",
"450 1350 OFFCURVE",
"205 1397 CURVE",
"220 1330 OFFCURVE",
"227 1265 OFFCURVE",
"227 1202 CURVE SMOOTH",
"227 1129 OFFCURVE",
"220 1047 OFFCURVE",
"205 956 CURVE",
"425 1007 OFFCURVE",
"907 1080 OFFCURVE",
"1198 1117 CURVE",
"1237 850 OFFCURVE",
"1266 404 OFFCURVE",
"1284 -221 CURVE"
);
}
);
width = 2146;
}
);
note = g29;
},
{
glyphname = g30;
lastChange = "2016-11-10 14:42:12 +0000";
layers = (
{
layerId = "E8EA7376-6AA3-4456-998F-1F16054EEFB7";
paths = (
{
closed = 1;
nodes = (
"898 -36 OFFCURVE",
"1121 201 OFFCURVE",
"1508 572 CURVE",
"1942 588 LINE",
"1942 641 LINE",
"1604 664 LINE",
"1868 913 LINE",
"1839 952 LINE",
"1407 679 LINE",
"836 723 OFFCURVE",
"557 760 OFFCURVE",
"205 860 CURVE",
"223 788 OFFCURVE",
"232 715 OFFCURVE",
"232 642 CURVE SMOOTH",
"232 573 OFFCURVE",
"223 498 OFFCURVE",
"205 418 CURVE",
"480 494 OFFCURVE",
"776 533 OFFCURVE",
"1209 558 CURVE",
"873 355 OFFCURVE",
"655 235 OFFCURVE",
"555 199 CURVE",
"695 99 OFFCURVE",
"765 12 OFFCURVE",
"838 -139 CURVE"
);
}
);
width = 2146;
}
);
note = g30;
},
{
glyphname = g31;
lastChange = "2016-11-10 14:42:12 +0000";
layers = (
{
layerId = "E8EA7376-6AA3-4456-998F-1F16054EEFB7";
paths = (
{
closed = 1;
nodes = (
"1143 684 OFFCURVE",
"1395 748 OFFCURVE",
"1663 795 CURVE",
"1659 742 OFFCURVE",
"1653 688 OFFCURVE",
"1645 635 CURVE",
"1780 698 OFFCURVE",
"2131 780 OFFCURVE",
"2482 829 CURVE",
"2480 877 LINE",
"2200 916 OFFCURVE",
"1816 1006 OFFCURVE",
"1645 1075 CURVE",
"1656 1018 OFFCURVE",
"1662 964 OFFCURVE",
"1665 911 CURVE",
"1402 960 OFFCURVE",
"1156 1027 OFFCURVE",
"1036 1075 CURVE",
"1051 1009 OFFCURVE",
"1058 944 OFFCURVE",
"1058 881 CURVE SMOOTH",
"1058 806 OFFCURVE",
"1051 724 OFFCURVE",
"1036 635 CURVE"
);
},
{
closed = 1;
nodes = (
"340 440 OFFCURVE",
"691 522 OFFCURVE",
"1042 571 CURVE",
"1042 618 LINE",
"789 653 OFFCURVE",
"389 745 OFFCURVE",
"205 817 CURVE",
"220 751 OFFCURVE",
"227 686 OFFCURVE",
"227 623 CURVE SMOOTH",
"227 548 OFFCURVE",
"220 466 OFFCURVE",
"205 377 CURVE"
);
},
{
closed = 1;
nodes = (
"353 966 OFFCURVE",
"731 1048 OFFCURVE",
"1040 1092 CURVE",
"1040 1139 LINE",
"760 1178 OFFCURVE",
"376 1268 OFFCURVE",
"205 1337 CURVE",
"220 1271 OFFCURVE",
"227 1206 OFFCURVE",
"227 1143 CURVE SMOOTH",
"227 1068 OFFCURVE",
"220 986 OFFCURVE",
"205 897 CURVE"
);
}
);
width = 2687;
}
);
note = g31;
},
{
glyphname = g32;
lastChange = "2016-11-10 14:42:12 +0000";
layers = (
{
layerId = "E8EA7376-6AA3-4456-998F-1F16054EEFB7";
paths = (
{
closed = 1;
nodes = (
"329 956 OFFCURVE",
"625 1025 OFFCURVE",
"962 1080 CURVE",
"959 1018 OFFCURVE",
"953 957 OFFCURVE",
"942 897 CURVE",
"1087 965 OFFCURVE",
"1466 1048 OFFCURVE",
"1778 1092 CURVE",
"1778 1139 LINE",
"1518 1175 OFFCURVE",
"1130 1262 OFFCURVE",
"942 1337 CURVE",
"955 1273 OFFCURVE",
"962 1211 OFFCURVE",
"963 1150 CURVE",
"671 1197 OFFCURVE",
"348 1280 OFFCURVE",
"205 1337 CURVE",
"220 1271 OFFCURVE",
"227 1206 OFFCURVE",
"227 1143 CURVE SMOOTH",
"227 1068 OFFCURVE",
"220 986 OFFCURVE",
"205 897 CURVE"
);
},
{
closed = 1;
nodes = (
"332 436 OFFCURVE",
"627 507 OFFCURVE",
"962 560 CURVE",
"959 498 OFFCURVE",
"953 437 OFFCURVE",
"942 377 CURVE",
"1081 441 OFFCURVE",
"1437 523 OFFCURVE",
"1778 571 CURVE",
"1778 618 LINE",
"1522 654 OFFCURVE",
"1127 744 OFFCURVE",
"942 817 CURVE",
"955 753 OFFCURVE",
"962 690 OFFCURVE",
"963 629 CURVE",
"699 670 OFFCURVE",
"353 757 OFFCURVE",
"205 817 CURVE",
"220 751 OFFCURVE",
"227 686 OFFCURVE",
"227 623 CURVE SMOOTH",
"227 548 OFFCURVE",
"220 466 OFFCURVE",
"205 377 CURVE"
);
},
{
closed = 1;
nodes = (
"1909 698 OFFCURVE",
"2260 780 OFFCURVE",
"2611 829 CURVE",
"2609 877 LINE",
"2329 916 OFFCURVE",
"1945 1006 OFFCURVE",
"1774 1075 CURVE",
"1788 1008 OFFCURVE",
"1795 943 OFFCURVE",
"1795 878 CURVE SMOOTH",
"1795 803 OFFCURVE",
"1788 722 OFFCURVE",
"1774 635 CURVE"
);
}
);
width = 2816;
}
);
note = g32;
},
{
glyphname = g33;
lastChange = "2016-11-10 14:42:12 +0000";
layers = (
{
layerId = "E8EA7376-6AA3-4456-998F-1F16054EEFB7";
paths = (
{
closed = 1;
nodes = (
"1093 651 OFFCURVE",
"1207 672 OFFCURVE",
"1379 697 CURVE SMOOTH",
"1550 722 OFFCURVE",
"1918 766 OFFCURVE",
"2482 829 CURVE",
"2482 877 LINE",
"2153 913 OFFCURVE",
"1248 1034 OFFCURVE",
"1036 1075 CURVE",
"1051 1009 OFFCURVE",
"1058 944 OFFCURVE",
"1058 881 CURVE SMOOTH",
"1058 806 OFFCURVE",
"1051 724 OFFCURVE",
"1036 635 CURVE"
);
},
{
closed = 1;
nodes = (
"340 440 OFFCURVE",
"691 522 OFFCURVE",
"1042 571 CURVE",
"1042 618 LINE",
"789 653 OFFCURVE",
"389 745 OFFCURVE",
"205 817 CURVE",
"220 751 OFFCURVE",
"227 686 OFFCURVE",
"227 623 CURVE SMOOTH",
"227 548 OFFCURVE",
"220 466 OFFCURVE",
"205 377 CURVE"
);
},
{
closed = 1;
nodes = (
"353 966 OFFCURVE",
"731 1048 OFFCURVE",
"1040 1092 CURVE",
"1040 1139 LINE",
"760 1178 OFFCURVE",
"376 1268 OFFCURVE",
"205 1337 CURVE",
"220 1271 OFFCURVE",
"227 1206 OFFCURVE",
"227 1143 CURVE SMOOTH",
"227 1068 OFFCURVE",
"220 986 OFFCURVE",
"205 897 CURVE"
);
}
);
width = 2687;
}
);
note = g33;
},
{
glyphname = g34;
lastChange = "2016-11-10 14:42:12 +0000";
layers = (
{
layerId = "E8EA7376-6AA3-4456-998F-1F16054EEFB7";
paths = (
{
closed = 1;
nodes = (
"336 300 OFFCURVE",
"501 372 OFFCURVE",
"754 433 CURVE",
"754 373 OFFCURVE",
"749 307 OFFCURVE",
"739 236 CURVE",
"932 321 OFFCURVE",
"1237 390 OFFCURVE",
"1804 459 CURVE",
"1804 506 LINE",
"1321 538 OFFCURVE",
"920 604 OFFCURVE",
"725 676 CURVE",
"741 613 OFFCURVE",
"750 548 OFFCURVE",
"753 483 CURVE",
"530 515 OFFCURVE",
"320 588 OFFCURVE",
"205 676 CURVE",
"234 519 OFFCURVE",
"231 386 OFFCURVE",
"211 199 CURVE"
);
}
